# xmcd
#
# Track frame offsets: 
#        150
#        18334
#        34090
#        51863
#        68955
#        89742
#        107278
#        126725
#        144781
#        165485
#        188528
#        210259
#        232576
#        250113
#        270005
#
# Disc length: 3897 seconds
#
# Revision: 0
# Processed by: cddbd v1.5.2PL0 Copyright (c) Steve Scherf et al.
# Submitted via: ExactAudioCopy v1.3
#
DISCID=b70f370f
DTITLE=Various Artist - 昭和 永遠の名曲大全集 1964-1989 Disc 4 COCP-40155-8
DYEAR=1900
DGENRE=JPop
TTITLE0=都はるみ - 大阪しぐれ
TTITLE1=八代亜紀 - 雨の慕情
TTITLE2=都はるみ 宮崎雅 - ふたりの大阪
TTITLE3=細川たかし - 北酒場
TTITLE4=大川栄策 - さざんかの宿
TTITLE5=細川たかし - 矢切の渡し
TTITLE6=都はるみ 岡千秋 - 浪花恋しぐれ
TTITLE7=細川たかし - 浪花節だよ人生は
TTITLE8=都はるみ - 夫婦坂
TTITLE9=美空ひばり - 愛燦燦(あいさんさん)
TTITLE10=石川さゆり - 天城越え
TTITLE11=新沼謙治 - 津軽恋女
TTITLE12=島倉千代子 - 人生いろいろ
TTITLE13=美空ひばり - みだれ髪
TTITLE14=美空ひばり - 川の流れのように
EXTD=
EXTT0=
EXTT1=
EXTT2=
EXTT3=
EXTT4=
EXTT5=
EXTT6=
EXTT7=
EXTT8=
EXTT9=
EXTT10=
EXTT11=
EXTT12=
EXTT13=
EXTT14=
PLAYORDER=
